<svg id="Layer_1" data-name="Layer 1" xmlns="http://www.w3.org/2000/svg" width="505" height="657.47851" viewBox="0 0 505 657.47851"><defs><style>.cls-1{font-size:126px;font-family:Merriweather-BigBold, Merriweather;font-weight:700;}.cls-2{letter-spacing:-0.00699em;}.cls-3{letter-spacing:-0.01299em;}.cls-4{letter-spacing:-0.01399em;}.cls-5{letter-spacing:0.0015em;}.cls-6{letter-spacing:0.00299em;}.cls-7{letter-spacing:0.002em;}.cls-8{letter-spacing:-0.002em;}.cls-9{letter-spacing:-0.00999em;}.cls-10{font-size:14px;font-family:Merriweather-TextRegular, Merriweather;}.cls-11{letter-spacing:-0.02051em;}.cls-12{letter-spacing:0.0015em;}.cls-13{letter-spacing:-0.01099em;}.cls-14{letter-spacing:0.00049em;}.cls-15{letter-spacing:0.01901em;}.cls-16{letter-spacing:-0.00248em;}.cls-17{letter-spacing:0.012em;}.cls-18{letter-spacing:-0.0045em;}.cls-19{letter-spacing:-0.00548em;}.cls-20{letter-spacing:-0.00202em;}.cls-21{letter-spacing:0.00502em;}.cls-22{letter-spacing:-0.00003em;}.cls-23{letter-spacing:-0.00596em;}.cls-24{letter-spacing:-0.01503em;}.cls-25{letter-spacing:0.00003em;}.cls-26{letter-spacing:-0.06048em;}.cls-27{letter-spacing:-0.00251em;}.cls-28{letter-spacing:0.01151em;}.cls-29{letter-spacing:-0.012em;}.cls-30{letter-spacing:-0.0075em;}.cls-31{letter-spacing:-0.00049em;}.cls-32{letter-spacing:-0.003em;}.cls-33{letter-spacing:-0.00698em;}.cls-34{letter-spacing:0.0075em;}.cls-35{letter-spacing:-0.00398em;}.cls-36{letter-spacing:0.00199em;}.cls-37{letter-spacing:-0.00296em;}.cls-38{letter-spacing:-0.00349em;}.cls-39{letter-spacing:-0.00551em;}.cls-40{letter-spacing:0.01897em;}.cls-41{letter-spacing:-0.00244em;}.cls-42{letter-spacing:-0.00949em;}.cls-43{letter-spacing:-0.03551em;}</style></defs><text class="cls-1" transform="translate(189.98991 84.14491) rotate(-7)">T<tspan class="cls-2" x="87.88428" y="0">h</tspan><tspan x="159.13818" y="0">e</tspan></text><text class="cls-1" transform="translate(258.0339 640.81353) rotate(-3)"><tspan class="cls-3">J</tspan><tspan x="39.81689" y="0">azz</tspan></text><text class="cls-1" transform="matrix(0.06976, 0.99756, -0.99756, 0.06976, 416.22718, 78.84082)"><tspan class="cls-4">M</tspan><tspan x="113.3374" y="0">od</tspan><tspan class="cls-5" x="250.29785" y="0">e</tspan><tspan class="cls-6" x="310.14697" y="0">r</tspan><tspan x="359.60059" y="0">n</tspan></text><text class="cls-1" transform="matrix(0.17365, -0.98481, 0.98481, 0.17365, 50.22623, 653.39471)"><tspan class="cls-7">Q</tspan><tspan x="88.45166" y="0">uart</tspan><tspan class="cls-8" x="307.62695" y="0">e</tspan><tspan class="cls-9" x="367.03564" y="0">t</tspan></text><text class="cls-10" transform="matrix(0.99452, -0.10453, 0.10453, 0.99452, 68.39267, 21.25383)"><tspan class="cls-11">K</tspan><tspan class="cls-12" x="9.61084" y="0">u</tspan><tspan x="18.18555" y="0">rte</tspan><tspan class="cls-13" x="36.63721" y="0">a</tspan><tspan x="43.77051" y="0">t</tspan><tspan class="cls-14" x="49.03418" y="0">e</tspan><tspan x="56.18799" y="0">r </tspan><tspan class="cls-15" x="65.33008" y="0">B</tspan><tspan class="cls-16" x="74.82227" y="0">a</tspan><tspan x="82.07471" y="0">d</tspan><tspan class="cls-14" x="90.27148" y="0">e</tspan><tspan x="97.42529" y="0">n</tspan></text><text class="cls-10" transform="matrix(0.06976, 0.99756, -0.99756, 0.06976, 395.46428, 81.68662)"><tspan class="cls-17">S</tspan><tspan x="8.33691" y="0">am</tspan><tspan class="cls-18" x="29.16211" y="0">s</tspan><tspan class="cls-14" x="35.7002" y="0">t</tspan><tspan class="cls-19" x="40.9707" y="0">a</tspan><tspan class="cls-20" x="48.18115" y="0">g</tspan><tspan x="56.39893" y="0">, 31. </tspan><tspan class="cls-21" x="84.73535" y="0">O</tspan><tspan class="cls-22" x="94.67529" y="0">kt</tspan><tspan class="cls-23" x="108.50635" y="0">o</tspan><tspan x="116.25586" y="0">b</tspan><tspan class="cls-14" x="124.4248" y="0">e</tspan><tspan x="131.57861" y="0">r 9</tspan><tspan class="cls-24" x="149.18359" y="0">2</tspan><tspan class="cls-25" x="157.18408" y="0">, </tspan></text><text class="cls-10" transform="translate(87.89115 561.5347) rotate(-80)"><tspan class="cls-26">V</tspan><tspan class="cls-27" x="8.40039" y="0">o</tspan><tspan class="cls-28" x="16.19824" y="0">r</tspan><tspan class="cls-29" x="22.40039" y="0">v</tspan><tspan class="cls-14" x="29.96045" y="0">e</tspan><tspan class="cls-16" x="37.11426" y="0">r</tspan><tspan class="cls-14" x="43.12061" y="0">k</tspan><tspan class="cls-30" x="51.69531" y="0">a</tspan><tspan class="cls-31" x="58.87744" y="0">u</tspan><tspan class="cls-32" x="67.42432" y="0">f</tspan><tspan x="72.50635" y="0">: </tspan><tspan class="cls-14" x="80.22021" y="0">S</tspan><tspan class="cls-33" x="88.396" y="0">K</tspan><tspan class="cls-34" x="98.19629" y="0">A</tspan><tspan x="107.93311" y="0">, </tspan><tspan class="cls-27" x="115.48584" y="0">B</tspan><tspan class="cls-35" x="124.67676" y="0">A</tspan><tspan x="134.25293" y="0">d</tspan><tspan class="cls-18" x="142.44971" y="0">s</tspan><tspan class="cls-36" x="148.98779" y="0">t</tspan><tspan class="cls-37" x="154.2793" y="0">r</tspan><tspan x="160.27881" y="0">a</tspan><tspan class="cls-38" x="167.56592" y="0">s</tspan><tspan x="174.11768" y="0">se </tspan><tspan class="cls-39" x="190.96631" y="0">8</tspan><tspan x="199.20459" y="0">, </tspan><tspan class="cls-40" x="206.75732" y="0">B</tspan><tspan class="cls-41" x="216.24854" y="0">a</tspan><tspan x="223.50146" y="0">d</tspan><tspan class="cls-14" x="231.69873" y="0">e</tspan><tspan x="238.85303" y="0">n</tspan><tspan class="cls-42" x="247.81982" y="0">,</tspan><tspan x="252.13916" y="0">056</tspan><tspan class="cls-43" x="277.58447" y="0">-</tspan><tspan x="285.07471" y="0">201 201</tspan></text></svg>